<svg xmlns="http://www.w3.org/2000/svg" width="1200" height="660" viewBox="0 0 1200 660" role="img" aria-labelledby="title description" xml:lang="zh-CN">
  <title id="title">三种审批路径，同一份人工设定的边界。</title>
  <desc id="description">人工模式不需要模型；辅助模式由 LLM 给建议、人工决定；自动模式由 LLM 报告暴露情况，本地校验后允许、拒绝或转人工。</desc>
  <defs>
    <marker id="arrow" markerWidth="8" markerHeight="8" refX="7" refY="4" orient="auto">
      <path d="M0 0 L8 4 L0 8" fill="#706d67" />
    </marker>
  </defs>
  <g font-family="-apple-system,BlinkMacSystemFont,'Segoe UI','PingFang SC','Microsoft YaHei',sans-serif">
    <rect x="0" y="0" width="1200" height="660" fill="#f4f1ea" stroke="#f4f1ea" />
    <rect x="0" y="0" width="1200" height="6" fill="#f2381e" stroke="#f2381e" />
    <text x="48" y="57" font-size="17" fill="#f2381e" font-weight="700">01 / APPROVAL ROUTING</text>
    <text x="48" y="108" font-size="36" fill="#171716" font-weight="700">三种审批路径，同一份人工设定的边界。</text>
    <text x="48" y="148" font-size="23" fill="#706d67" font-weight="400">在桌面端为受保护的密码选择审批模式。</text>
    <rect x="48" y="190" width="228" height="100" fill="#171716" stroke="#171716" />
    <svg width="21.0" height="21.0" viewBox="0 0 24 24" fill="none" stroke="currentColor" stroke-width="1.6" stroke-linecap="round" stroke-linejoin="round" aria-hidden="true" x="69.0" y="214.5" color="#fffefb">
      <path d="M2 21a8 8 0 0 1 13.292-6" />
      <circle cx="10" cy="8" r="5" />
      <path d="m16 19 2 2 4-4" />
    </svg>
    <text x="99.0" y="234" font-size="25" fill="#fffefb" font-weight="600">人工审批</text>
    <text x="69" y="267" font-size="16" fill="#b5b0a7" font-weight="400">无需模型</text>
    <path d="M277 240 L319 240" stroke="#706d67" stroke-width="2" fill="none" marker-end="url(#arrow)" />
    <rect x="329" y="190" width="462" height="100" fill="#fffefb" stroke="#cfcac1" />
    <text x="350" y="234" font-size="24" fill="#171716" font-weight="600">人查看请求与调用链证据</text>
    <text x="350" y="267" font-size="18" fill="#706d67" font-weight="400">调用链 + 请求上下文</text>
    <path d="M793 240 L835 240" stroke="#706d67" stroke-width="2" fill="none" marker-end="url(#arrow)" />
    <rect x="845" y="190" width="307" height="100" fill="#fffefb" stroke="#cfcac1" />
    <svg width="18.48" height="18.48" viewBox="0 0 24 24" fill="none" stroke="currentColor" stroke-width="1.6" stroke-linecap="round" stroke-linejoin="round" aria-hidden="true" x="863.0" y="229.84" color="#f2381e">
      <path d="M20 6 9 17l-5-5" />
    </svg>
    <text x="890.48" y="247" font-size="22" fill="#f2381e" font-weight="600">批准 /  拒绝</text>
    <rect x="48" y="318" width="228" height="100" fill="#171716" stroke="#171716" />
    <svg width="21.0" height="21.0" viewBox="0 0 24 24" fill="none" stroke="currentColor" stroke-width="1.6" stroke-linecap="round" stroke-linejoin="round" aria-hidden="true" x="69.0" y="342.5" color="#fffefb">
      <path d="M15 6a9 9 0 0 0-9 9V3" />
      <circle cx="18" cy="6" r="3" />
      <circle cx="6" cy="18" r="3" />
    </svg>
    <text x="99.0" y="362" font-size="25" fill="#fffefb" font-weight="600">辅助审批</text>
    <text x="69" y="395" font-size="16" fill="#b5b0a7" font-weight="400">人工作最终决定</text>
    <path d="M277 368 L319 368" stroke="#706d67" stroke-width="2" fill="none" marker-end="url(#arrow)" />
    <rect x="329" y="318" width="462" height="100" fill="#fffefb" stroke="#cfcac1" />
    <text x="350" y="362" font-size="24" fill="#171716" font-weight="600">LLM 提供建议 → 人作决定</text>
    <text x="350" y="395" font-size="18" fill="#706d67" font-weight="400">调用链 + 请求上下文</text>
    <path d="M793 368 L835 368" stroke="#706d67" stroke-width="2" fill="none" marker-end="url(#arrow)" />
    <rect x="845" y="318" width="307" height="100" fill="#fffefb" stroke="#cfcac1" />
    <svg width="18.48" height="18.48" viewBox="0 0 24 24" fill="none" stroke="currentColor" stroke-width="1.6" stroke-linecap="round" stroke-linejoin="round" aria-hidden="true" x="863.0" y="357.84" color="#f2381e">
      <path d="M20 6 9 17l-5-5" />
    </svg>
    <text x="890.48" y="375" font-size="22" fill="#f2381e" font-weight="600">批准 /  拒绝</text>
    <rect x="48" y="446" width="228" height="100" fill="#171716" stroke="#171716" />
    <svg width="21.0" height="21.0" viewBox="0 0 24 24" fill="none" stroke="currentColor" stroke-width="1.6" stroke-linecap="round" stroke-linejoin="round" aria-hidden="true" x="69.0" y="470.5" color="#fffefb">
      <path d="M12 8V4H8" />
      <rect width="16" height="12" x="4" y="8" rx="2" />
      <path d="M2 14h2" />
      <path d="M20 14h2" />
      <path d="M15 13v2" />
      <path d="M9 13v2" />
    </svg>
    <text x="99.0" y="490" font-size="25" fill="#fffefb" font-weight="600">自动审批</text>
    <text x="69" y="523" font-size="16" fill="#b5b0a7" font-weight="400">证据 + 已保存的范围</text>
    <path d="M277 496 L319 496" stroke="#706d67" stroke-width="2" fill="none" marker-end="url(#arrow)" />
    <rect x="329" y="446" width="462" height="100" fill="#fffefb" stroke="#f2381e" />
    <text x="350" y="490" font-size="24" fill="#171716" font-weight="600">LLM 暴露面报告 → 本地校验</text>
    <text x="350" y="523" font-size="18" fill="#706d67" font-weight="400">范围等级 + 网络目标 + 不确定性</text>
    <path d="M793 496 L835 496" stroke="#706d67" stroke-width="2" fill="none" marker-end="url(#arrow)" />
    <rect x="845" y="446" width="307" height="100" fill="#fffefb" stroke="#cfcac1" />
    <text x="863" y="503" font-size="22" fill="#f2381e" font-weight="600">允许 / 拒绝 / 转人工</text>
    <text x="48" y="590" font-size="21" fill="#171716" font-weight="500">转人工 → 等待人决定；拒绝 → 不返回密码；允许 → 读取并交付密码。</text>
    <text x="48" y="627" font-size="19" fill="#706d67" font-weight="400">人可以随时处理待定请求，后续模型结果不能覆盖已完成的人工决定。</text>
  </g>
</svg>
